<svg xmlns="http://www.w3.org/2000/svg" viewBox="0 0 32 32" fill="none">
  <rect width="32" height="32" rx="8" fill="#eff6ff"/>
  <rect x="2" y="2" width="28" height="28" rx="6" fill="url(#lucky)"/>
  <defs>
    <linearGradient id="lucky" x1="0" y1="0" x2="32" y2="32" gradientUnits="userSpaceOnUse">
      <stop stop-color="#22c55e"/>
      <stop offset="0.5" stop-color="#3b82f6"/>
      <stop offset="1" stop-color="#facc15"/>
    </linearGradient>
  </defs>
  <path d="M8 22V10h4.5c2.2 0 3.5 1.2 3.5 3 0 1.3-.7 2.3-1.8 2.8 1.4.5 2.3 1.7 2.3 3.4 0 2.3-1.5 3.8-4 3.8H8zm2.2-8.8h2.1c1 0 1.5-.5 1.5-1.3 0-.8-.5-1.3-1.5-1.3h-2.1v2.6zm0 6.8h2.4c1.1 0 1.7-.5 1.7-1.4 0-.9-.6-1.4-1.7-1.4h-2.4v2.8zM18.5 22l3.5-12h2.4l3.5 12h-2.3l-.7-2.5h-3.9l-.7 2.5h-2.3zm4.1-4.3 1.4-4.8 1.4 4.8h-2.8z" fill="white"/>
</svg>
